<svg width="2490" height="2500" viewBox="0 0 2490 2500" fill="none" xmlns="http://www.w3.org/2000/svg">
<path d="M0 182.996C0 85.7305 82.6758 5 184.805 5H2305.2C2407.32 5 2490 84.7578 2490 182.996V2317C2490 2414.27 2407.32 2495 2305.2 2495H184.805C82.6758 2495 0 2415.24 0 2317V182.996Z" fill="#006699"/>
<path d="M756.727 2088.43V967.93H384.199V2088.43H756.727ZM570.949 814.25C700.313 814.25 781.043 728.656 781.043 620.691C779.098 510.781 700.313 427.133 573.867 427.133C446.449 427.133 362.801 510.781 362.801 621.664C362.801 728.656 443.531 815.223 569.004 815.223H570.949V814.25ZM962.93 2088.43H1335.46V1463.98C1335.46 1429.94 1338.38 1395.9 1348.1 1372.55C1374.36 1306.41 1435.64 1236.38 1538.74 1236.38C1673.94 1236.38 1727.44 1339.48 1727.44 1489.27V2089.4H2100.94V1447.45C2100.94 1103.13 1917.11 941.668 1672.97 941.668C1604.55 939.026 1536.73 955.34 1477 988.81C1417.27 1022.28 1367.95 1071.6 1334.48 1131.34H1336.43V967.93H962.93C967.793 1072.98 962.93 2088.43 962.93 2088.43Z" fill="white"/>
</svg>
