<svg width="195" height="195" viewBox="0 0 195 195" fill="none" xmlns="http://www.w3.org/2000/svg">
<circle cx="97.5" cy="97.5" r="97.5" fill="black"/>
<path d="M51 32C51 30.8954 51.8954 30 53 30H77.5137C82.9499 30 87.6211 30.8138 91.5273 32.4414C95.4661 34.069 98.4935 36.4779 100.609 39.668C102.725 42.8581 103.783 46.7806 103.783 51.4355C103.783 55.2441 103.132 58.5156 101.83 61.25C100.561 63.9518 98.7539 66.2142 96.4102 68.0371C94.1349 69.7996 91.4652 71.2152 88.4013 72.2836C88.3047 72.3173 88.2104 72.3579 88.1199 72.4056L84.0545 74.5452C83.7673 74.6964 83.4476 74.7754 83.123 74.7754H62.5533C61.4554 74.7754 60.5627 73.8903 60.5534 72.7925L60.4899 65.3667C60.4804 64.2555 61.3786 63.3496 62.4898 63.3496H77.6113C80.1829 63.3496 82.3151 62.8939 84.0078 61.9824C85.7005 61.071 86.9701 59.8014 87.8164 58.1738C88.6953 56.5462 89.1348 54.6582 89.1348 52.5098C89.1348 50.2311 88.7116 48.2617 87.8652 46.6016C87.0189 44.9414 85.7331 43.6719 84.0078 42.793C82.2826 41.9141 80.1178 41.4746 77.5137 41.4746H67.6484C66.5439 41.4746 65.6484 42.37 65.6484 43.4746V99.0938C65.6484 100.198 64.753 101.094 63.6484 101.094H53C51.8954 101.094 51 100.198 51 99.0938V32ZM91.9695 101.094C91.2186 101.094 90.5309 100.673 90.1889 100.005L76.0137 72.2946C75.3355 70.9687 76.2924 69.3932 77.7817 69.3838L88.7988 69.3143C89.5453 69.3096 90.2322 69.7209 90.5805 70.3812L106.357 100.29C106.398 100.369 106.42 100.457 106.42 100.546C106.42 100.848 106.175 101.094 105.872 101.094H91.9695Z" fill="white"/>
<path d="M142 97.5C143.105 97.5 144 98.3954 144 99.5V163.5C144 164.605 143.105 165.5 142 165.5H129.64C128.934 165.5 128.279 165.127 127.919 164.518L107.37 129.789C106.333 128.038 103.648 128.773 103.648 130.808V164.094C103.648 165.198 102.753 166.094 101.648 166.094H91C89.8954 166.094 89 165.198 89 164.094V97C89 95.8954 89.8954 95 91 95H102.488C103.205 95 103.868 95.3846 104.224 96.0079L124.763 131.96C125.781 133.74 128.5 133.018 128.5 130.967V99.5C128.5 98.3954 129.395 97.5 130.5 97.5H142Z" fill="white"/>
</svg>
